<?xml version="1.0" encoding="utf-8"?>
<!-- Generator: Adobe Illustrator 25.0.0, SVG Export Plug-In . SVG Version: 6.00 Build 0)  -->
<svg version="1.1" id="Camada_1" xmlns="http://www.w3.org/2000/svg" xmlns:xlink="http://www.w3.org/1999/xlink" x="0px" y="0px"
	 viewBox="0 0 80 80" style="enable-background:new 0 0 80 80;" xml:space="preserve">
<g>
	<path d="M40.77,23.33c0.75-1.64,1.41-3.08,2.06-4.52c1.35-3.01,2.78-5.99,4.02-9.03c2.22-5.42,6.45-8.53,12.91-9.33
		c3.41-0.43,6.79-0.49,10.11,0.42c7.62,2.1,11.65,8.21,9.6,15.14c-0.89,3.02-2.33,6-4.07,8.72c-5.7,8.9-11.67,17.66-17.48,26.5
		c-0.48,0.72-0.77,1.65-0.78,2.49c-0.07,5.29-0.22,10.59,0.01,15.87c0.28,6.32-4.38,9.99-10.11,10.25c-4.21,0.19-8.39,0.4-12.52-0.6
		c-5.33-1.29-8.32-4.41-9.08-9.21c-0.21-1.32-0.28-2.67-0.3-4.01c-0.04-4.32,0.01-8.64-0.04-12.96c-0.01-0.66-0.27-1.4-0.67-1.95
		C16.74,40.76,9.21,30.32,2.9,19.23c-1.03-1.82-2.13-3.69-2.61-5.65C-1.08,7.99,2.52,2.95,8.95,1.02c9.21-2.77,18.53,0.2,23.42,7.76
		c2.79,4.32,5.14,8.87,7.68,13.31C40.25,22.44,40.46,22.79,40.77,23.33z M53.26,69.39c0.01,0,0.02,0,0.03,0c0-0.67,0.11-1.36-0.04-2
		c-0.1-0.41-0.58-0.74-0.9-1.11c-0.31,0.37-0.86,0.71-0.9,1.1c-0.12,1.18-0.01,2.38-0.06,3.57c-0.07,1.94-1.38,3.29-3.53,3.66
		c-0.7,0.12-1.45,0.07-2.11,0.27c-0.38,0.11-0.62,0.57-0.93,0.87c0.38,0.26,0.75,0.73,1.15,0.75c0.82,0.05,1.68-0.09,2.5-0.24
		c2.69-0.5,4.58-2.43,4.77-4.85C53.3,70.73,53.26,70.06,53.26,69.39z M15.37,3.48c-0.43,0.02-1.09-0.03-1.67,0.13
		c-0.34,0.1-0.78,0.55-0.77,0.83c0.01,0.27,0.5,0.63,0.86,0.76c0.36,0.13,0.82,0.02,1.24,0.01c2.46-0.05,4.85,0.23,7.08,1.21
		C22.76,6.7,23.45,7,23.86,6.27c0.44-0.79-0.31-1.12-0.97-1.4C20.58,3.88,18.11,3.56,15.37,3.48z M11.14,22.9
		c-1.01,0-1.39,0.64-0.92,1.38c1.5,2.36,3.02,4.71,4.61,7.03c0.19,0.28,0.88,0.29,1.34,0.42c0.08-0.42,0.39-0.96,0.21-1.25
		c-1.46-2.38-3.01-4.72-4.56-7.05C11.65,23.17,11.29,23.01,11.14,22.9z M34.77,20.17c-0.13-0.13-0.26-0.25-0.39-0.38
		c-0.04-0.14-0.05-0.3-0.12-0.43c-1.4-2.49-2.78-4.99-4.25-7.45c-0.15-0.26-0.83-0.27-1.26-0.39c-0.1,0.42-0.43,0.91-0.27,1.23
		c0.62,1.3,1.38,2.54,2.09,3.8c0.65,1.16,1.27,2.34,1.99,3.47c0.18,0.28,0.7,0.52,1.08,0.55C34,20.6,34.39,20.32,34.77,20.17z
		 M76.15,12.32C76,9.68,74.92,7.28,72.21,5.61c-0.59-0.36-1.23-0.69-1.74-0.02c-0.45,0.59,0.01,1.02,0.59,1.37
		c2.02,1.22,2.98,2.96,3.14,5.09c0.02,0.33-0.06,0.72,0.1,0.99c0.21,0.37,0.6,0.66,0.92,0.99c0.32-0.36,0.65-0.71,0.94-1.09
		C76.22,12.83,76.15,12.64,76.15,12.32z M58.02,44c0.22-0.15,0.59-0.28,0.76-0.53c1.63-2.34,3.24-4.69,4.79-7.07
		c0.17-0.27-0.12-0.77-0.2-1.17c-0.44,0.08-1.12,0.04-1.29,0.27c-1.71,2.38-3.35,4.8-4.96,7.24C56.72,43.36,57.11,43.79,58.02,44z
		 M44.99,23.17c0.23,0.22,0.57,0.77,0.82,0.75c0.43-0.05,1-0.39,1.17-0.74c1.12-2.36,2.15-4.75,3.22-7.13
		c0.27-0.6,0.45-1.22-0.4-1.49c-0.87-0.28-1.14,0.37-1.4,0.94c-1,2.24-2.01,4.48-3.01,6.73C45.28,22.45,45.19,22.69,44.99,23.17z
		 M36.33,76.13c0.14-0.11,0.7-0.32,0.72-0.57c0.03-0.34-0.32-0.72-0.57-1.04c-0.1-0.12-0.38-0.13-0.58-0.18
		c-2.59-0.62-4.21-2.04-4.68-4.42c-0.04-0.18-0.05-0.42-0.18-0.52c-0.32-0.24-0.84-0.65-1.02-0.56c-0.35,0.17-0.75,0.63-0.74,0.97
		C29.35,72.7,32.76,75.85,36.33,76.13z M26.84,45.45c-0.13-0.32-0.18-0.54-0.31-0.72c-1.65-2.28-3.28-4.57-4.99-6.81
		c-0.21-0.27-0.9-0.26-1.37-0.37c-0.06,0.43-0.32,0.96-0.13,1.27c0.64,1.08,1.44,2.08,2.19,3.11c0.91,1.25,1.8,2.51,2.77,3.71
		c0.21,0.26,0.76,0.43,1.14,0.43C26.38,46.07,26.62,45.66,26.84,45.45z M63.44,4.43c-0.7-0.38-1.1-0.78-1.46-0.76
		c-3.33,0.17-6.49,0.83-8.82,3.16c-0.31,0.31-0.46,1.12-0.23,1.4c0.48,0.57,1.09,0.21,1.57-0.24c1.36-1.29,3.04-2.06,5.01-2.34
		c0.83-0.12,1.66-0.2,2.47-0.39C62.39,5.16,62.74,4.84,63.44,4.43z M5.43,7.4C5.22,7.64,4.85,7.93,4.65,8.29
		c-1.59,2.83-0.78,5.49,0.88,8.03c0.22,0.34,0.96,0.7,1.32,0.61c0.78-0.21,0.66-0.86,0.33-1.39c-1.42-2.24-2.07-4.52-0.63-6.98
		C6.9,7.95,6.48,7.5,5.43,7.4z M67.84,29.42c0.17-0.13,0.56-0.32,0.74-0.6c1.47-2.33,2.93-4.67,4.3-7.04
		c0.18-0.32-0.17-0.87-0.28-1.32c-0.47,0.2-1.11,0.3-1.37,0.63c-0.62,0.79-1.04,1.69-1.56,2.53c-0.88,1.43-1.79,2.85-2.66,4.29
		C66.51,28.74,66.8,29.4,67.84,29.42z M40.77,30.94c-0.59-1.06-1.27-2.38-2.09-3.63c-0.23-0.35-0.95-0.74-1.31-0.65
		c-0.78,0.18-0.69,0.8-0.37,1.37c0.9,1.6,1.76,3.21,2.71,4.78c0.19,0.31,0.71,0.53,1.13,0.64c1.14,0.29,1.55-0.4,1.84-1.2
		c0.24-0.66,1.1-1.43,0.05-1.93C42.34,30.12,41.49,30.69,40.77,30.94z M51.41,54.8c0,1.15,0.01,2.31-0.01,3.46
		c-0.01,0.62,0.13,1.19,0.95,1.18c0.84-0.01,0.94-0.61,0.93-1.21c-0.01-0.78-0.06-1.57,0.01-2.35c0.17-1.79-0.49-3.64,0.49-5.39
		c0.1-0.18-0.16-0.73-0.4-0.82c-0.3-0.12-0.96-0.08-1.1,0.11c-0.4,0.53-0.77,1.16-0.85,1.77C51.31,52.63,51.41,53.72,51.41,54.8z
		 M28.94,57c0,1.27,0.01,2.53,0,3.8c-0.01,0.63,0.18,1.23,0.97,1.13c0.36-0.05,0.85-0.71,0.86-1.1c0.08-2.61,0.08-5.21,0-7.82
		c-0.01-0.38-0.53-1.01-0.89-1.06c-0.82-0.11-0.95,0.53-0.94,1.14C28.95,54.39,28.94,55.69,28.94,57z"/>
</g>
</svg>
