<?xml version="1.0" encoding="utf-8"?>
<!-- Generator: Adobe Illustrator 25.0.0, SVG Export Plug-In . SVG Version: 6.00 Build 0)  -->
<svg version="1.1" id="Camada_1" xmlns="http://www.w3.org/2000/svg" xmlns:xlink="http://www.w3.org/1999/xlink" x="0px" y="0px"
	 viewBox="0 0 84 25" style="enable-background:new 0 0 84 25;" xml:space="preserve">
<g>
	<path d="M2.7,16.1L0.1,4c-0.4-1.8,0.7-3.6,2.3-3.6h0c1.2,0,2.1,1,2.3,2.4l0.5,3.6c0.3,1.9,0.6,3.9,0.9,5.9h0.1
		c0.9-1.9,1.8-4,2.7-5.9c0,0,1.4-3,2.2-4.7c0.1-0.2,0.2-0.4,0.3-0.6c0-0.1,0.1-0.2,0.1-0.3c0-0.1,0.1-0.1,0.1-0.2
		c0.1-0.1,0.1-0.2,0.3-0.2c0.1,0,0.1,0,0.2,0c0.1,0,0.2,0,0.3,0c0.1,0,0.2,0,0.3,0c0.1,0,0.2,0,0.4,0c0.1,0,0.3,0,0.4,0
		c0.1,0,0.3,0,0.4,0c0.1,0,0.3,0,0.4,0c0.1,0,0.3,0,0.4,0c1.1,0,2.1,0,2.1,0L8.1,17c-0.3,0.5-0.4,1-0.5,1.6l-0.6,3.7
		c-0.2,1.3-1.2,2.3-2.3,2.3h0c-1.5,0-2.6-1.7-2.3-3.5l0.5-2.9C2.8,17.5,2.8,16.8,2.7,16.1z"/>
	<path d="M19.5,0.4L19.5,0.4c2,0,3.6,1.8,3.8,4.2l1.3,16.8c0.1,1.7-1,3.1-2.3,3.1H22c-1.3,0-2.3-1.2-2.4-2.8l-0.2-10
		c-0.1-2.3-0.1-4.5-0.1-6.9h-0.1c-0.7,2.3-1.5,4.6-2.3,6.9l-3.8,11c-0.4,1.1-1.2,1.8-2.2,1.8h0c-1.8,0-2.9-2.2-2.1-4.1L16,3
		C16.7,1.4,18,0.4,19.5,0.4z M12.3,18.2c0.4-2.1,2-3.6,3.7-3.6h6.2l-0.2,0.8c-0.4,2.1-2,3.6-3.7,3.6h-6.2L12.3,18.2z"/>
	<path d="M25.3,18.7l0.3-0.3c0.8-0.8,1.9-0.7,2.7,0.1c0.9,1,2,1.5,3.2,1.5c1.6,0,2.6-0.7,2.6-2c0-1.2-0.9-1.9-2.2-2.9l-1.7-1.2
		c-1.8-1.3-3.4-3.4-3.4-6.6c0-4.5,3.1-7.2,7-7.2c2,0,3.8,0.8,5.3,2.2c1,0.9,1,2.7,0.1,3.7L38.9,6c-0.7,0.7-1.7,0.8-2.3,0.2
		C35.8,5.5,34.9,5,33.8,5c-1.1,0-2,0.5-2,1.8c0,1,0.7,1.7,1.7,2.4l2.1,1.6c2,1.6,3.5,3.2,3.5,6.6c0,4.9-3.3,7.5-7.4,7.5
		c-2.8,0-5-1.2-6.4-3C24.4,21.1,24.5,19.5,25.3,18.7z"/>
	<path d="M43.5,0.4H45c1.1,0,1.9,1,2,2.3l0.3,5.6l0.1,3.7h0.1l1-3.4c0-0.1,0.1-0.3,0.1-0.4l2.6-6.5c0.3-0.8,1-1.3,1.8-1.3h1.4
		c1.3,0,2.2,1.4,1.9,2.9l-3.2,19.3c-0.2,1.1-1,1.9-1.9,1.9H51c-1.3,0-2.2-1.4-1.9-2.9l0.7-4.1c0.4-2.6,1.9-8.7,2.6-11.4h-0.1
		L49.7,13l-2,5.1H45l-0.3-4.5l-0.3-7.4h-0.1c-0.3,3.3-0.7,8.3-1.1,10.5l-1,5.9c-0.2,1.1-1,1.9-1.9,1.9h0c-1.3,0-2.2-1.4-1.9-2.9
		l3.2-19.3C41.7,1.3,42.5,0.4,43.5,0.4z"/>
	<path d="M54.3,19.6h2.1c0.7,0,1.3-0.6,1.5-1.4l1.8-10.6c0.2-1.1-0.5-2.2-1.5-2.2h-0.9c-0.9,0-1.7-1.1-1.5-2.2l0.2-1.4
		c0.1-0.8,0.8-1.4,1.5-1.4h11c0.9,0,1.7,1.1,1.5,2.2L69.7,4c-0.1,0.8-0.8,1.4-1.5,1.4h-2.1c-0.7,0-1.3,0.6-1.5,1.4l-1.8,10.6
		c-0.2,1.1,0.5,2.2,1.5,2.2h0.9c0.9,0,1.7,1.1,1.5,2.2l-0.2,1.3c-0.1,0.8-0.8,1.4-1.5,1.4h-11c-0.9,0-1.7-1.1-1.5-2.2l0.2-1.3
		C53,20.2,53.6,19.6,54.3,19.6z"/>
	<path d="M72.6,0.4L72.6,0.4c1.5,0,2.7,1.2,2.9,2.9l1.3,8.6l0.6,5.3h0.1c0.2-2.6,0.6-7.2,0.8-9l1-6.4c0.1-0.8,0.8-1.5,1.5-1.5h1.6
		c0.9,0,1.6,1,1.5,2.2l-3.2,19.1c-0.3,1.7-1.5,2.8-2.9,2.8h0c-1.4,0-2.6-1.2-2.9-2.8l-1.4-8.6c0-0.1,0-0.1,0-0.2L73,7.7h-0.1
		c-0.2,2.7-0.5,7-0.9,9.3l-1,6c-0.1,0.9-0.8,1.5-1.5,1.5H68c-0.9,0-1.6-1-1.5-2.2l3.2-19.1C70,1.6,71.2,0.4,72.6,0.4z"/>
</g>
</svg>
