<?xml version="1.0" encoding="utf-8"?>
<!-- Generator: Adobe Illustrator 25.0.0, SVG Export Plug-In . SVG Version: 6.00 Build 0)  -->
<svg version="1.1" id="Camada_1" xmlns="http://www.w3.org/2000/svg" xmlns:xlink="http://www.w3.org/1999/xlink" x="0px" y="0px"
	 viewBox="0 0 84 25" style="enable-background:new 0 0 84 25;" xml:space="preserve">
<g>
	<path d="M42.3,7.3c0.3-0.5,0.6-1,0.8-1.4c0.5-1,1.1-1.9,1.6-2.9c0.9-1.7,2.5-2.7,5.1-3c1.3-0.1,2.7-0.2,4,0.1
		c3,0.6,4.6,2.6,3.8,4.7c-0.3,1-0.9,1.9-1.6,2.8c-2.2,2.8-4.6,5.6-6.9,8.4c-0.2,0.2-0.3,0.5-0.3,0.8c0,1.7-0.1,3.3,0,5
		c0.1,2-1.7,3.2-4,3.3c-1.7,0.1-3.3,0.1-5-0.2c-2.1-0.4-3.3-1.4-3.6-2.9c-0.1-0.4-0.1-0.8-0.1-1.3c0-1.4,0-2.7,0-4.1
		c0-0.2-0.1-0.4-0.3-0.6c-3.1-3.2-6.1-6.5-8.6-10c-0.4-0.6-0.8-1.2-1-1.8c-0.6-1.8,0.9-3.4,3.4-4c3.6-0.9,7.3,0,9.3,2.4
		C40.1,4,41,5.5,42,6.9C42.1,7,42.2,7.1,42.3,7.3z M47.4,21.7C47.4,21.7,47.4,21.7,47.4,21.7c0-0.2,0.1-0.4,0-0.6
		c0-0.1-0.2-0.2-0.4-0.3c-0.1,0.1-0.3,0.2-0.4,0.3c0,0.4,0,0.7,0,1.1c0,0.6-0.5,1-1.4,1.2c-0.3,0-0.6,0-0.8,0.1
		c-0.2,0-0.2,0.2-0.4,0.3c0.2,0.1,0.3,0.2,0.5,0.2c0.3,0,0.7,0,1-0.1c1.1-0.2,1.8-0.8,1.9-1.5C47.4,22.2,47.4,21.9,47.4,21.7z
		 M32.2,1.1c-0.2,0-0.4,0-0.7,0c-0.1,0-0.3,0.2-0.3,0.3c0,0.1,0.2,0.2,0.3,0.2c0.1,0,0.3,0,0.5,0c1,0,1.9,0.1,2.8,0.4
		c0.3,0.1,0.5,0.2,0.7-0.1c0.2-0.2-0.1-0.4-0.4-0.4C34.3,1.2,33.3,1.1,32.2,1.1z M30.6,7.2c-0.4,0-0.5,0.2-0.4,0.4
		c0.6,0.7,1.2,1.5,1.8,2.2c0.1,0.1,0.3,0.1,0.5,0.1c0-0.1,0.2-0.3,0.1-0.4c-0.6-0.7-1.2-1.5-1.8-2.2C30.8,7.3,30.7,7.2,30.6,7.2z
		 M39.9,6.3c-0.1,0-0.1-0.1-0.2-0.1c0,0,0-0.1,0-0.1c-0.6-0.8-1.1-1.6-1.7-2.3c-0.1-0.1-0.3-0.1-0.5-0.1c0,0.1-0.2,0.3-0.1,0.4
		c0.2,0.4,0.6,0.8,0.8,1.2c0.3,0.4,0.5,0.7,0.8,1.1c0.1,0.1,0.3,0.2,0.4,0.2C39.6,6.4,39.8,6.3,39.9,6.3z M56.3,3.7
		c-0.1-0.8-0.5-1.6-1.6-2.1c-0.2-0.1-0.5-0.2-0.7,0c-0.2,0.2,0,0.3,0.2,0.4c0.8,0.4,1.2,0.9,1.3,1.6c0,0.1,0,0.2,0,0.3
		c0.1,0.1,0.2,0.2,0.4,0.3c0.1-0.1,0.3-0.2,0.4-0.3C56.3,3.9,56.3,3.8,56.3,3.7z M49.2,13.7c0.1,0,0.2-0.1,0.3-0.2
		c0.6-0.7,1.3-1.5,1.9-2.2c0.1-0.1,0-0.2-0.1-0.4c-0.2,0-0.4,0-0.5,0.1c-0.7,0.8-1.3,1.5-1.9,2.3C48.7,13.5,48.8,13.7,49.2,13.7z
		 M44,7.2c0.1,0.1,0.2,0.2,0.3,0.2c0.2,0,0.4-0.1,0.5-0.2c0.4-0.7,0.8-1.5,1.3-2.3c0.1-0.2,0.2-0.4-0.2-0.5
		c-0.3-0.1-0.5,0.1-0.6,0.3c-0.4,0.7-0.8,1.4-1.2,2.1C44.1,7,44.1,7,44,7.2z M40.7,23.9c0.1,0,0.3-0.1,0.3-0.2
		c0-0.1-0.1-0.2-0.2-0.3c0,0-0.2,0-0.2-0.1c-1-0.2-1.7-0.6-1.9-1.4c0-0.1,0-0.1-0.1-0.2c-0.1-0.1-0.3-0.2-0.4-0.2
		c-0.1,0.1-0.3,0.2-0.3,0.3C37.9,22.8,39.3,23.8,40.7,23.9z M36.9,14.3c-0.1-0.1-0.1-0.2-0.1-0.2c-0.7-0.7-1.3-1.4-2-2.1
		c-0.1-0.1-0.4-0.1-0.5-0.1c0,0.1-0.1,0.3,0,0.4c0.3,0.3,0.6,0.7,0.9,1c0.4,0.4,0.7,0.8,1.1,1.2c0.1,0.1,0.3,0.1,0.5,0.1
		C36.7,14.5,36.8,14.3,36.9,14.3z M51.3,1.2C51,1.1,50.8,1,50.7,1c-1.3,0.1-2.6,0.3-3.5,1c-0.1,0.1-0.2,0.4-0.1,0.4
		c0.2,0.2,0.4,0.1,0.6-0.1c0.5-0.4,1.2-0.7,2-0.7c0.3,0,0.7-0.1,1-0.1C50.8,1.5,51,1.4,51.3,1.2z M28.3,2.3
		c-0.1,0.1-0.2,0.2-0.3,0.3c-0.6,0.9-0.3,1.7,0.4,2.5c0.1,0.1,0.4,0.2,0.5,0.2C29.2,5.3,29.2,5,29,4.9c-0.6-0.7-0.8-1.4-0.3-2.2
		C28.9,2.5,28.7,2.4,28.3,2.3z M53,9.1c0.1,0,0.2-0.1,0.3-0.2c0.6-0.7,1.2-1.5,1.7-2.2c0.1-0.1-0.1-0.3-0.1-0.4
		c-0.2,0.1-0.4,0.1-0.5,0.2C54.1,6.7,54,7,53.8,7.3c-0.3,0.5-0.7,0.9-1,1.4C52.5,8.9,52.6,9.1,53,9.1z M42.3,9.7
		c-0.2-0.3-0.5-0.7-0.8-1.1c-0.1-0.1-0.4-0.2-0.5-0.2c-0.3,0.1-0.3,0.3-0.1,0.4c0.4,0.5,0.7,1,1.1,1.5c0.1,0.1,0.3,0.2,0.4,0.2
		c0.5,0.1,0.6-0.1,0.7-0.4c0.1-0.2,0.4-0.5,0-0.6C43,9.4,42.6,9.6,42.3,9.7z M46.6,17.1c0,0.4,0,0.7,0,1.1c0,0.2,0.1,0.4,0.4,0.4
		c0.3,0,0.4-0.2,0.4-0.4c0-0.2,0-0.5,0-0.7c0.1-0.6-0.2-1.1,0.2-1.7c0-0.1-0.1-0.2-0.2-0.3c-0.1,0-0.4,0-0.4,0
		c-0.2,0.2-0.3,0.4-0.3,0.6C46.6,16.5,46.6,16.8,46.6,17.1z M37.7,17.9c0,0.4,0,0.8,0,1.2c0,0.2,0.1,0.4,0.4,0.4
		c0.1,0,0.3-0.2,0.3-0.3c0-0.8,0-1.6,0-2.5c0-0.1-0.2-0.3-0.4-0.3c-0.3,0-0.4,0.2-0.4,0.4C37.7,17.1,37.7,17.5,37.7,17.9z"/>
</g>
</svg>
